<svg width="1600" height="1000" viewBox="0 0 1600 1000" fill="none" xmlns="http://www.w3.org/2000/svg">
  <rect width="1600" height="1000" fill="#0B1223"/>
  <circle cx="145" cy="147" r="236" fill="#4F7CFF" fill-opacity="0.16"/>
  <circle cx="1448" cy="185" r="272" fill="#14B8A6" fill-opacity="0.12"/>
  <circle cx="1280" cy="818" r="240" fill="#7B61FF" fill-opacity="0.14"/>
  <rect x="112" y="150" width="1376" height="700" rx="36" fill="#111C36" fill-opacity="0.9" stroke="#2A3C68" stroke-width="2"/>
  <rect x="112" y="150" width="270" height="700" rx="36" fill="#0E1730"/>
  <rect x="430" y="208" width="1008" height="106" rx="24" fill="#152546"/>
  <rect x="472" y="238" width="220" height="18" rx="9" fill="#3F5DA7"/>
  <rect x="472" y="268" width="350" height="12" rx="6" fill="#263A6E"/>
  <rect x="1210" y="230" width="170" height="46" rx="23" fill="#1E305A"/>
  <rect x="430" y="360" width="422" height="190" rx="28" fill="#152546"/>
  <rect x="884" y="360" width="554" height="190" rx="28" fill="#152546"/>
  <rect x="430" y="580" width="1008" height="222" rx="28" fill="#152546"/>
  <rect x="160" y="220" width="174" height="54" rx="16" fill="#16284B"/>
  <rect x="160" y="294" width="174" height="54" rx="16" fill="#16284B"/>
  <rect x="160" y="368" width="174" height="54" rx="16" fill="#28447D"/>
  <rect x="160" y="442" width="174" height="54" rx="16" fill="#16284B"/>
  <rect x="472" y="398" width="98" height="98" rx="26" fill="#234179"/>
  <rect x="594" y="398" width="98" height="98" rx="26" fill="#1B6D78"/>
  <rect x="716" y="398" width="98" height="98" rx="26" fill="#5B3FA6"/>
  <path d="M930 497C1007 417 1087 407 1164 472C1213 514 1273 520 1360 442" stroke="#4F7CFF" stroke-width="18" stroke-linecap="round"/>
  <path d="M930 470C996 410 1066 394 1140 445C1188 478 1243 484 1332 418" stroke="#14B8A6" stroke-opacity="0.8" stroke-width="10" stroke-linecap="round"/>
  <rect x="474" y="626" width="916" height="18" rx="9" fill="#273F73"/>
  <rect x="474" y="666" width="744" height="14" rx="7" fill="#203560"/>
  <rect x="474" y="703" width="836" height="14" rx="7" fill="#203560"/>
  <rect x="474" y="740" width="640" height="14" rx="7" fill="#203560"/>
</svg>
